<?xml version="1.0" encoding="UTF-8" standalone="no"?>
<!DOCTYPE svg PUBLIC "-//W3C//DTD SVG 1.1//EN" "http://www.w3.org/Graphics/SVG/1.1/DTD/svg11.dtd">
<svg width="100%" height="100%" viewBox="0 0 1000 1000" version="1.1" xmlns="http://www.w3.org/2000/svg" xmlns:xlink="http://www.w3.org/1999/xlink" xml:space="preserve" xmlns:serif="http://www.serif.com/" style="fill-rule:evenodd;clip-rule:evenodd;stroke-linejoin:round;stroke-miterlimit:2;">
    <g transform="matrix(1.08319,0,0,1.08319,-41.5936,-41.5936)">
        <g transform="matrix(0.923202,0,0,0.923202,38.3992,38.3992)">
            <circle cx="500" cy="500" r="500" style="fill-opacity:0;"/>
            <path d="M500,0C775.958,0 1000,224.042 1000,500C1000,775.958 775.958,1000 500,1000C224.042,1000 0,775.958 0,500C0,224.042 224.042,0 500,0ZM500,91.667C725.365,91.667 908.333,274.635 908.333,500C908.333,725.365 725.365,908.333 500,908.333C274.635,908.333 91.667,725.365 91.667,500C91.667,274.635 274.635,91.667 500,91.667Z" style="fill:white;"/>
        </g>
        <g transform="matrix(0.875759,0,0,0.875759,193.43,-123.084)">
            <circle cx="598.33" cy="570.292" r="248.269" style="fill-opacity:0;"/>
            <path d="M598.33,322.023C735.353,322.023 846.599,433.268 846.599,570.292C846.599,707.315 735.353,818.56 598.33,818.56C461.307,818.56 350.061,707.315 350.061,570.292C350.061,433.268 461.307,322.023 598.33,322.023ZM598.33,418.656C682.02,418.656 749.966,486.601 749.966,570.292C749.966,653.982 682.02,721.928 598.33,721.928C514.64,721.928 446.694,653.982 446.694,570.292C446.694,486.601 514.64,418.656 598.33,418.656Z" style="fill:white;"/>
        </g>
        <g transform="matrix(1.04028,0,0,1.04028,149.877,161.125)">
            <circle cx="278.053" cy="521.014" r="87.411" style="fill:white;"/>
            <path d="M278.053,433.603C326.296,433.603 365.463,472.771 365.463,521.014C365.463,569.257 326.296,608.424 278.053,608.424C229.809,608.424 190.642,569.257 190.642,521.014C190.642,472.771 229.809,433.603 278.053,433.603ZM278.053,563.434C254.64,563.434 235.632,544.426 235.632,521.014C235.632,497.601 254.64,478.593 278.053,478.593C301.465,478.593 320.473,497.601 320.473,521.014C320.473,544.426 301.465,563.434 278.053,563.434Z" style="fill-opacity:0;"/>
        </g>
        <g transform="matrix(1.08452,0,0,1.08452,-83.4404,-241.014)">
            <circle cx="278.053" cy="521.014" r="87.411" style="fill:white;"/>
            <path d="M278.053,433.603C326.296,433.603 365.463,472.771 365.463,521.014C365.463,569.257 326.296,608.424 278.053,608.424C229.809,608.424 190.642,569.257 190.642,521.014C190.642,472.771 229.809,433.603 278.053,433.603ZM278.053,558.138C257.563,558.138 240.928,541.503 240.928,521.014C240.928,500.524 257.563,483.89 278.053,483.89C298.542,483.89 315.177,500.524 315.177,521.014C315.177,541.503 298.542,558.138 278.053,558.138Z" style="fill-opacity:0;"/>
        </g>
    </g>
</svg>
