<?xml version="1.0" encoding="UTF-8" standalone="no"?>
<!DOCTYPE svg PUBLIC "-//W3C//DTD SVG 1.1//EN" "http://www.w3.org/Graphics/SVG/1.1/DTD/svg11.dtd">
<svg width="100%" height="100%" viewBox="0 0 156 110" version="1.1" xmlns="http://www.w3.org/2000/svg" xmlns:xlink="http://www.w3.org/1999/xlink" xml:space="preserve" xmlns:serif="http://www.serif.com/" style="fill-rule:evenodd;clip-rule:evenodd;stroke-linejoin:round;stroke-miterlimit:2;">
    <path d="M150.734,17.98C148.959,11.42 143.818,6.279 137.258,4.504C125.442,1.281 77.885,1.281 77.885,1.281C77.885,1.281 30.328,1.379 18.512,4.602C11.952,6.377 6.811,11.518 5.036,18.078C1.462,39.073 0.075,71.064 5.134,91.22C6.909,97.78 12.05,102.921 18.61,104.696C30.426,107.919 77.983,107.919 77.983,107.919C77.983,107.919 125.54,107.919 137.356,104.696C143.916,102.921 149.057,97.78 150.832,91.22C154.601,70.195 155.763,38.224 150.734,17.98ZM102.201,54.6L62.749,77.451L62.749,31.749L102.201,54.6Z" style="fill:white;fill-rule:nonzero;"/>
</svg>
