<?xml version="1.0" encoding="UTF-8" standalone="no"?>
<!DOCTYPE svg PUBLIC "-//W3C//DTD SVG 1.1//EN" "http://www.w3.org/Graphics/SVG/1.1/DTD/svg11.dtd">
<svg width="100%" height="100%" viewBox="0 0 1000 1000" version="1.1" xmlns="http://www.w3.org/2000/svg" xmlns:xlink="http://www.w3.org/1999/xlink" xml:space="preserve" xmlns:serif="http://www.serif.com/" style="fill-rule:evenodd;clip-rule:evenodd;stroke-linecap:round;stroke-linejoin:round;stroke-miterlimit:1.5;">
    <g>
        <g transform="matrix(0.414098,0,0,0.414098,292.951,292.951)">
            <circle cx="500" cy="500" r="500" style="fill-opacity:0;"/>
            <path d="M500,0C775.958,0 1000,224.042 1000,500C1000,775.958 775.958,1000 500,1000C224.042,1000 0,775.958 0,500C0,224.042 224.042,0 500,0ZM500,223.601C652.549,223.601 776.399,347.451 776.399,500C776.399,652.549 652.549,776.399 500,776.399C347.451,776.399 223.601,652.549 223.601,500C223.601,347.451 347.451,223.601 500,223.601Z" style="fill:white;"/>
        </g>
        <g transform="matrix(1.88396e-17,0.307674,-0.307674,1.88396e-17,923.428,346.163)">
            <path d="M500,0L500,287.304" style="fill:none;stroke:white;stroke-width:297.93px;"/>
        </g>
        <g transform="matrix(1.88396e-17,0.307674,-0.307674,1.88396e-17,164.968,346.163)">
            <path d="M500,0L500,287.304" style="fill:none;stroke:white;stroke-width:297.93px;"/>
        </g>
        <g transform="matrix(-0.307674,3.76792e-17,-3.76792e-17,-0.307674,653.837,923.428)">
            <path d="M500,0L500,287.304" style="fill:none;stroke:white;stroke-width:297.93px;"/>
        </g>
        <g transform="matrix(-0.307674,3.76792e-17,-3.76792e-17,-0.307674,653.837,164.968)">
            <path d="M500,0L500,287.304" style="fill:none;stroke:white;stroke-width:297.93px;"/>
        </g>
        <g transform="matrix(-0.217558,0.217558,-0.217558,-0.217558,908.188,690.63)">
            <path d="M500,0L500,287.304" style="fill:none;stroke:white;stroke-width:297.93px;"/>
        </g>
        <g transform="matrix(-0.217558,0.217558,-0.217558,-0.217558,371.876,154.317)">
            <path d="M500,0L500,287.304" style="fill:none;stroke:white;stroke-width:297.93px;"/>
        </g>
        <g transform="matrix(-0.217558,-0.217558,0.217558,-0.217558,309.37,908.188)">
            <path d="M500,0L500,287.304" style="fill:none;stroke:white;stroke-width:297.93px;"/>
        </g>
        <g transform="matrix(-0.217558,-0.217558,0.217558,-0.217558,845.683,371.876)">
            <path d="M500,0L500,287.304" style="fill:none;stroke:white;stroke-width:297.93px;"/>
        </g>
    </g>
</svg>
