<?xml version="1.0" encoding="UTF-8" standalone="no"?>
<!DOCTYPE svg PUBLIC "-//W3C//DTD SVG 1.1//EN" "http://www.w3.org/Graphics/SVG/1.1/DTD/svg11.dtd">
<svg width="100%" height="100%" viewBox="0 0 1000 1000" version="1.1" xmlns="http://www.w3.org/2000/svg" xmlns:xlink="http://www.w3.org/1999/xlink" xml:space="preserve" xmlns:serif="http://www.serif.com/" style="fill-rule:evenodd;clip-rule:evenodd;stroke-linejoin:round;stroke-miterlimit:2;">
    <path d="M500,-0C775.958,-0 1000,224.042 1000,500C1000,775.958 775.958,1000 500,1000C224.042,1000 0,775.958 0,500C0,224.042 224.042,-0 500,-0ZM528.976,284.227C547.534,285.409 565.975,288.443 584.3,293.33C608.472,299.776 629.421,309.042 647.147,321.128L627.205,369.472C609.076,357.386 589.94,348.623 569.796,343.185C555.902,339.433 542.294,336.975 528.976,335.812L528.976,477.871C540.627,480.81 552.321,483.957 564.056,487.31C582.386,492.547 599.105,499.396 614.212,507.856C629.32,516.316 641.507,527.596 650.772,541.697C660.038,555.797 664.671,573.926 664.671,596.083C664.671,617.435 658.83,637.276 647.147,655.607C635.464,673.937 617.435,688.642 593.062,699.721C575.133,707.87 553.77,713.022 528.976,715.177L528.976,784.02L481.297,784.02L481.297,715.719C456.125,714.113 431.841,709.384 408.449,701.534C379.04,691.663 355.875,678.872 338.954,663.161L361.314,616.025C377.428,630.126 397.974,641.809 422.952,651.075C441.825,658.076 461.273,662.432 481.297,664.143L481.297,523.471C470.846,520.815 460.361,517.926 449.843,514.805C431.513,509.367 414.794,502.417 399.686,493.957C384.579,485.497 372.392,474.116 363.126,459.814C353.861,445.512 349.228,427.081 349.228,404.521C349.228,382.766 354.968,362.724 366.45,344.393C377.932,326.063 395.658,311.358 419.628,300.279C436.818,292.335 457.373,287.239 481.297,284.991L481.297,215.98L528.976,215.98L528.976,284.227ZM528.976,535.121L528.976,663.531C541.159,662.164 551.744,659.825 560.732,656.513C576.041,650.873 587.321,643.118 594.573,633.248C601.824,623.378 605.45,612.198 605.45,599.709C605.45,585.206 600.716,573.523 591.249,564.66C581.782,555.797 569.494,548.646 554.387,543.207C546.345,540.312 537.875,537.617 528.976,535.121ZM481.297,336.912C470.467,338.411 460.889,340.804 452.563,344.091C437.254,350.134 426.074,358.191 419.024,368.263C411.974,378.335 408.449,389.615 408.449,402.104C408.449,417.01 413.182,428.894 422.65,437.757C432.117,446.62 444.405,453.67 459.512,458.908C466.454,461.314 473.715,463.614 481.297,465.809L481.297,336.912Z" style="fill:white;"/>
</svg>
