<?xml version="1.0" encoding="UTF-8" standalone="no"?>
<!DOCTYPE svg PUBLIC "-//W3C//DTD SVG 1.1//EN" "http://www.w3.org/Graphics/SVG/1.1/DTD/svg11.dtd">
<svg width="100%" height="100%" viewBox="0 0 48 48" version="1.1" xmlns="http://www.w3.org/2000/svg" xmlns:xlink="http://www.w3.org/1999/xlink" xml:space="preserve" xmlns:serif="http://www.serif.com/" style="fill-rule:evenodd;clip-rule:evenodd;stroke-linejoin:round;stroke-miterlimit:2;">
    <g id="Oval" transform="matrix(0.199833,0,0,0.199833,0,0)">
        <path d="M120.1,0C186.385,0 240.2,53.815 240.2,120.1C240.2,186.385 186.385,240.2 120.1,240.2C53.815,240.2 0,186.385 0,120.1C0,53.815 53.815,0 120.1,0ZM54.3,118.8C89.3,103.6 112.6,93.5 124.3,88.6C157.6,74.7 164.6,72.3 169.1,72.2C170.1,72.2 172.3,72.4 173.8,73.6C175,74.6 175.3,75.9 175.5,76.9C175.7,77.9 175.9,80 175.7,81.6C173.9,100.6 166.1,146.7 162.1,167.9C160.4,176.9 157.1,179.9 153.9,180.2C146.9,180.8 141.6,175.6 134.9,171.2C124.3,164.3 118.4,160 108.1,153.2C96.2,145.4 103.9,141.1 110.7,134.1C112.5,132.3 143.2,104.3 143.8,101.8C143.9,101.5 143.9,100.3 143.2,99.7C142.5,99.1 141.5,99.3 140.7,99.5C139.6,99.7 122.8,110.9 90.1,133C85.3,136.3 81,137.9 77.1,137.8C72.8,137.7 64.6,135.4 58.4,133.4C50.9,131 44.9,129.7 45.4,125.5C45.7,123.3 48.7,121.1 54.3,118.8Z" style="fill:white;"/>
    </g>
</svg>
